<mxfile host="Electron" modified="2024-01-02T18:26:56.270Z" agent="Mozilla/5.0 (Windows NT 10.0; Win64; x64) AppleWebKit/537.36 (KHTML, like Gecko) draw.io/22.0.0 Chrome/114.0.5735.289 Electron/25.8.3 Safari/537.36" etag="ud1DSNK_alxiwD58kqXW" version="22.0.0" type="device">
  <diagram name="Page-1" id="ctSU2Plk_UWXI0dnWDSY">
    <mxGraphModel dx="5170" dy="3020" grid="1" gridSize="10" guides="1" tooltips="1" connect="1" arrows="1" fold="1" page="1" pageScale="1" pageWidth="1654" pageHeight="2336" math="0" shadow="0">
      <root>
        <mxCell id="0" />
        <mxCell id="1" parent="0" />
        <mxCell id="eNsB-PMLN9mRBoNj7WUG-65" value="" style="shape=partialRectangle;whiteSpace=wrap;html=1;bottom=1;right=1;left=1;top=0;fillColor=none;routingCenterX=-0.5;" vertex="1" parent="1">
          <mxGeometry x="405" y="1167" width="820" height="60" as="geometry" />
        </mxCell>
        <mxCell id="eNsB-PMLN9mRBoNj7WUG-1" value="" style="endArrow=none;html=1;rounded=0;" edge="1" parent="1">
          <mxGeometry width="50" height="50" relative="1" as="geometry">
            <mxPoint x="410" y="450" as="sourcePoint" />
            <mxPoint x="490" y="450" as="targetPoint" />
          </mxGeometry>
        </mxCell>
        <mxCell id="eNsB-PMLN9mRBoNj7WUG-8" value="&lt;font style=&quot;font-size: 35px;&quot;&gt;1&lt;/font&gt;" style="edgeLabel;html=1;align=center;verticalAlign=middle;resizable=0;points=[];" vertex="1" connectable="0" parent="eNsB-PMLN9mRBoNj7WUG-1">
          <mxGeometry x="0.2417" y="1" relative="1" as="geometry">
            <mxPoint x="-10" y="-29" as="offset" />
          </mxGeometry>
        </mxCell>
        <mxCell id="eNsB-PMLN9mRBoNj7WUG-11" value="" style="endArrow=none;html=1;rounded=0;" edge="1" parent="1">
          <mxGeometry width="50" height="50" relative="1" as="geometry">
            <mxPoint x="530" y="450" as="sourcePoint" />
            <mxPoint x="610" y="450" as="targetPoint" />
          </mxGeometry>
        </mxCell>
        <mxCell id="eNsB-PMLN9mRBoNj7WUG-12" value="&lt;font style=&quot;font-size: 35px;&quot;&gt;2&lt;/font&gt;" style="edgeLabel;html=1;align=center;verticalAlign=middle;resizable=0;points=[];" vertex="1" connectable="0" parent="eNsB-PMLN9mRBoNj7WUG-11">
          <mxGeometry x="0.2417" y="1" relative="1" as="geometry">
            <mxPoint x="-10" y="-29" as="offset" />
          </mxGeometry>
        </mxCell>
        <mxCell id="eNsB-PMLN9mRBoNj7WUG-13" value="" style="endArrow=none;html=1;rounded=0;" edge="1" parent="1">
          <mxGeometry width="50" height="50" relative="1" as="geometry">
            <mxPoint x="650" y="450" as="sourcePoint" />
            <mxPoint x="730" y="450" as="targetPoint" />
          </mxGeometry>
        </mxCell>
        <mxCell id="eNsB-PMLN9mRBoNj7WUG-14" value="&lt;font style=&quot;font-size: 35px;&quot;&gt;3&lt;/font&gt;" style="edgeLabel;html=1;align=center;verticalAlign=middle;resizable=0;points=[];" vertex="1" connectable="0" parent="eNsB-PMLN9mRBoNj7WUG-13">
          <mxGeometry x="0.2417" y="1" relative="1" as="geometry">
            <mxPoint x="-10" y="-29" as="offset" />
          </mxGeometry>
        </mxCell>
        <mxCell id="eNsB-PMLN9mRBoNj7WUG-15" value="" style="endArrow=none;html=1;rounded=0;" edge="1" parent="1">
          <mxGeometry width="50" height="50" relative="1" as="geometry">
            <mxPoint x="770" y="450" as="sourcePoint" />
            <mxPoint x="850" y="450" as="targetPoint" />
          </mxGeometry>
        </mxCell>
        <mxCell id="eNsB-PMLN9mRBoNj7WUG-16" value="&lt;font style=&quot;font-size: 35px;&quot;&gt;4&lt;/font&gt;" style="edgeLabel;html=1;align=center;verticalAlign=middle;resizable=0;points=[];" vertex="1" connectable="0" parent="eNsB-PMLN9mRBoNj7WUG-15">
          <mxGeometry x="0.2417" y="1" relative="1" as="geometry">
            <mxPoint x="-10" y="-29" as="offset" />
          </mxGeometry>
        </mxCell>
        <mxCell id="eNsB-PMLN9mRBoNj7WUG-17" value="" style="endArrow=none;html=1;rounded=0;" edge="1" parent="1">
          <mxGeometry width="50" height="50" relative="1" as="geometry">
            <mxPoint x="890" y="450" as="sourcePoint" />
            <mxPoint x="970" y="450" as="targetPoint" />
          </mxGeometry>
        </mxCell>
        <mxCell id="eNsB-PMLN9mRBoNj7WUG-18" value="&lt;font style=&quot;font-size: 35px;&quot;&gt;4&lt;/font&gt;" style="edgeLabel;html=1;align=center;verticalAlign=middle;resizable=0;points=[];" vertex="1" connectable="0" parent="eNsB-PMLN9mRBoNj7WUG-17">
          <mxGeometry x="0.2417" y="1" relative="1" as="geometry">
            <mxPoint x="-10" y="-29" as="offset" />
          </mxGeometry>
        </mxCell>
        <mxCell id="eNsB-PMLN9mRBoNj7WUG-19" value="" style="endArrow=none;html=1;rounded=0;" edge="1" parent="1">
          <mxGeometry width="50" height="50" relative="1" as="geometry">
            <mxPoint x="1010" y="450" as="sourcePoint" />
            <mxPoint x="1090" y="450" as="targetPoint" />
          </mxGeometry>
        </mxCell>
        <mxCell id="eNsB-PMLN9mRBoNj7WUG-20" value="&lt;font style=&quot;font-size: 35px;&quot;&gt;4&lt;/font&gt;" style="edgeLabel;html=1;align=center;verticalAlign=middle;resizable=0;points=[];" vertex="1" connectable="0" parent="eNsB-PMLN9mRBoNj7WUG-19">
          <mxGeometry x="0.2417" y="1" relative="1" as="geometry">
            <mxPoint x="-10" y="-29" as="offset" />
          </mxGeometry>
        </mxCell>
        <mxCell id="eNsB-PMLN9mRBoNj7WUG-21" value="" style="endArrow=none;html=1;rounded=0;" edge="1" parent="1">
          <mxGeometry width="50" height="50" relative="1" as="geometry">
            <mxPoint x="1130" y="450" as="sourcePoint" />
            <mxPoint x="1210" y="450" as="targetPoint" />
          </mxGeometry>
        </mxCell>
        <mxCell id="eNsB-PMLN9mRBoNj7WUG-22" value="&lt;font style=&quot;font-size: 35px;&quot;&gt;4&lt;/font&gt;" style="edgeLabel;html=1;align=center;verticalAlign=middle;resizable=0;points=[];" vertex="1" connectable="0" parent="eNsB-PMLN9mRBoNj7WUG-21">
          <mxGeometry x="0.2417" y="1" relative="1" as="geometry">
            <mxPoint x="-10" y="-29" as="offset" />
          </mxGeometry>
        </mxCell>
        <mxCell id="eNsB-PMLN9mRBoNj7WUG-24" value="&lt;font style=&quot;font-size: 19px;&quot;&gt;&lt;b&gt;Resultados ao primeiro item da escala de empatia, ordenados por ordem crescente&lt;/b&gt;&lt;/font&gt;" style="text;html=1;strokeColor=none;fillColor=none;align=center;verticalAlign=middle;whiteSpace=wrap;rounded=0;" vertex="1" parent="1">
          <mxGeometry x="410" y="280" width="800" height="40" as="geometry" />
        </mxCell>
        <mxCell id="eNsB-PMLN9mRBoNj7WUG-25" value="" style="shape=flexArrow;endArrow=classic;html=1;rounded=0;" edge="1" parent="1">
          <mxGeometry width="50" height="50" relative="1" as="geometry">
            <mxPoint x="809.41" y="530" as="sourcePoint" />
            <mxPoint x="809.41" y="460" as="targetPoint" />
          </mxGeometry>
        </mxCell>
        <mxCell id="eNsB-PMLN9mRBoNj7WUG-26" value="&lt;font style=&quot;font-size: 22px;&quot;&gt;Mediana (valor central) = 4&lt;/font&gt;" style="text;html=1;strokeColor=none;fillColor=none;align=center;verticalAlign=middle;whiteSpace=wrap;rounded=0;" vertex="1" parent="1">
          <mxGeometry x="740" y="550" width="150" height="50" as="geometry" />
        </mxCell>
        <mxCell id="eNsB-PMLN9mRBoNj7WUG-28" value="&lt;font style=&quot;font-size: 22px;&quot;&gt;N = 7&lt;/font&gt;" style="text;html=1;strokeColor=none;fillColor=none;align=center;verticalAlign=middle;whiteSpace=wrap;rounded=0;" vertex="1" parent="1">
          <mxGeometry x="410" y="330" width="60" height="30" as="geometry" />
        </mxCell>
        <mxCell id="eNsB-PMLN9mRBoNj7WUG-29" value="" style="shape=partialRectangle;whiteSpace=wrap;html=1;bottom=1;right=1;left=1;top=0;fillColor=none;routingCenterX=-0.5;" vertex="1" parent="1">
          <mxGeometry x="400" y="430" width="340" height="60" as="geometry" />
        </mxCell>
        <mxCell id="eNsB-PMLN9mRBoNj7WUG-30" value="&lt;font style=&quot;font-size: 22px;&quot;&gt;50% dos valores é igual ou inferior à mediana = 4&lt;/font&gt;" style="text;html=1;strokeColor=none;fillColor=none;align=center;verticalAlign=middle;whiteSpace=wrap;rounded=0;" vertex="1" parent="1">
          <mxGeometry x="470" y="450" width="200" height="190" as="geometry" />
        </mxCell>
        <mxCell id="eNsB-PMLN9mRBoNj7WUG-31" value="&lt;font style=&quot;font-size: 22px;&quot;&gt;50% dos valores é igual ou superior à mediana = 4&lt;/font&gt;" style="text;html=1;strokeColor=none;fillColor=none;align=center;verticalAlign=middle;whiteSpace=wrap;rounded=0;" vertex="1" parent="1">
          <mxGeometry x="950" y="450" width="200" height="190" as="geometry" />
        </mxCell>
        <mxCell id="eNsB-PMLN9mRBoNj7WUG-32" value="" style="shape=partialRectangle;whiteSpace=wrap;html=1;bottom=1;right=1;left=1;top=0;fillColor=none;routingCenterX=-0.5;" vertex="1" parent="1">
          <mxGeometry x="880" y="430" width="340" height="60" as="geometry" />
        </mxCell>
        <mxCell id="eNsB-PMLN9mRBoNj7WUG-33" value="&lt;span style=&quot;font-size: 22px;&quot;&gt;- N(igual ou superior à mediana) = 50% + 1 (o valor central) = 3 + 1 = 4 valores em 7 que são iguais ou superiores à mediana 4&lt;/span&gt;" style="text;html=1;strokeColor=none;fillColor=none;align=left;verticalAlign=middle;whiteSpace=wrap;rounded=0;" vertex="1" parent="1">
          <mxGeometry x="400" y="685" width="850" height="30" as="geometry" />
        </mxCell>
        <mxCell id="eNsB-PMLN9mRBoNj7WUG-37" value="&lt;font style=&quot;font-size: 22px;&quot;&gt;- Valor de referência para obtenção de empatia = 3 (igual ou superior)&lt;/font&gt;" style="text;html=1;strokeColor=none;fillColor=none;align=left;verticalAlign=middle;whiteSpace=wrap;rounded=0;" vertex="1" parent="1">
          <mxGeometry x="400" y="730" width="760" height="30" as="geometry" />
        </mxCell>
        <mxCell id="eNsB-PMLN9mRBoNj7WUG-38" value="" style="shape=partialRectangle;whiteSpace=wrap;html=1;bottom=1;right=1;left=1;top=0;fillColor=none;routingCenterX=-0.5;" vertex="1" parent="1">
          <mxGeometry x="400" y="550" width="820" height="60" as="geometry" />
        </mxCell>
        <mxCell id="eNsB-PMLN9mRBoNj7WUG-39" value="&lt;font style=&quot;font-size: 22px;&quot;&gt;- Há 5 valores em 7 que são iguais ou superiores a 3, valor de referência para a média da pontuação de empatia&amp;nbsp;&lt;/font&gt;" style="text;html=1;strokeColor=none;fillColor=none;align=left;verticalAlign=middle;whiteSpace=wrap;rounded=0;" vertex="1" parent="1">
          <mxGeometry x="400" y="810" width="830" height="30" as="geometry" />
        </mxCell>
        <mxCell id="eNsB-PMLN9mRBoNj7WUG-41" value="&lt;span style=&quot;font-size: 22px;&quot;&gt;DEFINIÇÃO DE MEDIANA&lt;/span&gt;" style="text;html=1;strokeColor=none;fillColor=none;align=center;verticalAlign=middle;whiteSpace=wrap;rounded=0;" vertex="1" parent="1">
          <mxGeometry x="400" y="620" width="820" height="30" as="geometry" />
        </mxCell>
        <mxCell id="eNsB-PMLN9mRBoNj7WUG-42" value="&lt;font style=&quot;font-size: 22px;&quot;&gt;- Como há 4 valores em 7 (maioria) que são iguais ou inferiores à mediana (4), há 5 valores em 7 (maioria) que são iguais ou superiores ao valor de referência 3 e o valor da mediana &amp;gt;= valor de referência, a ocorrência deste valor de mediana fará com que o valor final da empatia&amp;nbsp; (médio) tenda a ficar próximo de 3&lt;/font&gt;" style="text;html=1;strokeColor=none;fillColor=none;align=left;verticalAlign=middle;whiteSpace=wrap;rounded=0;" vertex="1" parent="1">
          <mxGeometry x="400" y="888" width="830" height="30" as="geometry" />
        </mxCell>
        <mxCell id="eNsB-PMLN9mRBoNj7WUG-44" value="&lt;span style=&quot;font-size: 22px;&quot;&gt;&lt;b&gt;EXEMPLO DE PIOR CASO (em que mediana seja um valor igual ou superior a 3)&lt;/b&gt;&lt;/span&gt;" style="text;html=1;strokeColor=none;fillColor=none;align=left;verticalAlign=middle;whiteSpace=wrap;rounded=0;" vertex="1" parent="1">
          <mxGeometry x="400" y="967" width="850" height="30" as="geometry" />
        </mxCell>
        <mxCell id="eNsB-PMLN9mRBoNj7WUG-45" value="" style="endArrow=none;html=1;rounded=0;" edge="1" parent="1">
          <mxGeometry width="50" height="50" relative="1" as="geometry">
            <mxPoint x="415" y="1067" as="sourcePoint" />
            <mxPoint x="495" y="1067" as="targetPoint" />
          </mxGeometry>
        </mxCell>
        <mxCell id="eNsB-PMLN9mRBoNj7WUG-46" value="&lt;font style=&quot;font-size: 35px;&quot;&gt;1&lt;/font&gt;" style="edgeLabel;html=1;align=center;verticalAlign=middle;resizable=0;points=[];" vertex="1" connectable="0" parent="eNsB-PMLN9mRBoNj7WUG-45">
          <mxGeometry x="0.2417" y="1" relative="1" as="geometry">
            <mxPoint x="-10" y="-29" as="offset" />
          </mxGeometry>
        </mxCell>
        <mxCell id="eNsB-PMLN9mRBoNj7WUG-47" value="" style="endArrow=none;html=1;rounded=0;" edge="1" parent="1">
          <mxGeometry width="50" height="50" relative="1" as="geometry">
            <mxPoint x="535" y="1067" as="sourcePoint" />
            <mxPoint x="615" y="1067" as="targetPoint" />
          </mxGeometry>
        </mxCell>
        <mxCell id="eNsB-PMLN9mRBoNj7WUG-48" value="&lt;font style=&quot;font-size: 35px;&quot;&gt;1&lt;/font&gt;" style="edgeLabel;html=1;align=center;verticalAlign=middle;resizable=0;points=[];" vertex="1" connectable="0" parent="eNsB-PMLN9mRBoNj7WUG-47">
          <mxGeometry x="0.2417" y="1" relative="1" as="geometry">
            <mxPoint x="-10" y="-29" as="offset" />
          </mxGeometry>
        </mxCell>
        <mxCell id="eNsB-PMLN9mRBoNj7WUG-49" value="" style="endArrow=none;html=1;rounded=0;" edge="1" parent="1">
          <mxGeometry width="50" height="50" relative="1" as="geometry">
            <mxPoint x="655" y="1067" as="sourcePoint" />
            <mxPoint x="735" y="1067" as="targetPoint" />
          </mxGeometry>
        </mxCell>
        <mxCell id="eNsB-PMLN9mRBoNj7WUG-50" value="&lt;font style=&quot;font-size: 35px;&quot;&gt;1&lt;/font&gt;" style="edgeLabel;html=1;align=center;verticalAlign=middle;resizable=0;points=[];" vertex="1" connectable="0" parent="eNsB-PMLN9mRBoNj7WUG-49">
          <mxGeometry x="0.2417" y="1" relative="1" as="geometry">
            <mxPoint x="-10" y="-29" as="offset" />
          </mxGeometry>
        </mxCell>
        <mxCell id="eNsB-PMLN9mRBoNj7WUG-51" value="" style="endArrow=none;html=1;rounded=0;" edge="1" parent="1">
          <mxGeometry width="50" height="50" relative="1" as="geometry">
            <mxPoint x="775" y="1067" as="sourcePoint" />
            <mxPoint x="855" y="1067" as="targetPoint" />
          </mxGeometry>
        </mxCell>
        <mxCell id="eNsB-PMLN9mRBoNj7WUG-52" value="&lt;font style=&quot;font-size: 35px;&quot;&gt;3&lt;/font&gt;" style="edgeLabel;html=1;align=center;verticalAlign=middle;resizable=0;points=[];" vertex="1" connectable="0" parent="eNsB-PMLN9mRBoNj7WUG-51">
          <mxGeometry x="0.2417" y="1" relative="1" as="geometry">
            <mxPoint x="-10" y="-29" as="offset" />
          </mxGeometry>
        </mxCell>
        <mxCell id="eNsB-PMLN9mRBoNj7WUG-53" value="" style="endArrow=none;html=1;rounded=0;" edge="1" parent="1">
          <mxGeometry width="50" height="50" relative="1" as="geometry">
            <mxPoint x="895" y="1067" as="sourcePoint" />
            <mxPoint x="975" y="1067" as="targetPoint" />
          </mxGeometry>
        </mxCell>
        <mxCell id="eNsB-PMLN9mRBoNj7WUG-54" value="&lt;font style=&quot;font-size: 35px;&quot;&gt;3&lt;/font&gt;" style="edgeLabel;html=1;align=center;verticalAlign=middle;resizable=0;points=[];" vertex="1" connectable="0" parent="eNsB-PMLN9mRBoNj7WUG-53">
          <mxGeometry x="0.2417" y="1" relative="1" as="geometry">
            <mxPoint x="-10" y="-29" as="offset" />
          </mxGeometry>
        </mxCell>
        <mxCell id="eNsB-PMLN9mRBoNj7WUG-55" value="" style="endArrow=none;html=1;rounded=0;" edge="1" parent="1">
          <mxGeometry width="50" height="50" relative="1" as="geometry">
            <mxPoint x="1015" y="1067" as="sourcePoint" />
            <mxPoint x="1095" y="1067" as="targetPoint" />
          </mxGeometry>
        </mxCell>
        <mxCell id="eNsB-PMLN9mRBoNj7WUG-56" value="&lt;font style=&quot;font-size: 35px;&quot;&gt;3&lt;/font&gt;" style="edgeLabel;html=1;align=center;verticalAlign=middle;resizable=0;points=[];" vertex="1" connectable="0" parent="eNsB-PMLN9mRBoNj7WUG-55">
          <mxGeometry x="0.2417" y="1" relative="1" as="geometry">
            <mxPoint x="-10" y="-29" as="offset" />
          </mxGeometry>
        </mxCell>
        <mxCell id="eNsB-PMLN9mRBoNj7WUG-57" value="" style="endArrow=none;html=1;rounded=0;" edge="1" parent="1">
          <mxGeometry width="50" height="50" relative="1" as="geometry">
            <mxPoint x="1135" y="1067" as="sourcePoint" />
            <mxPoint x="1215" y="1067" as="targetPoint" />
          </mxGeometry>
        </mxCell>
        <mxCell id="eNsB-PMLN9mRBoNj7WUG-58" value="&lt;font style=&quot;font-size: 35px;&quot;&gt;3&lt;/font&gt;" style="edgeLabel;html=1;align=center;verticalAlign=middle;resizable=0;points=[];" vertex="1" connectable="0" parent="eNsB-PMLN9mRBoNj7WUG-57">
          <mxGeometry x="0.2417" y="1" relative="1" as="geometry">
            <mxPoint x="-10" y="-29" as="offset" />
          </mxGeometry>
        </mxCell>
        <mxCell id="eNsB-PMLN9mRBoNj7WUG-59" value="" style="shape=flexArrow;endArrow=classic;html=1;rounded=0;" edge="1" parent="1">
          <mxGeometry width="50" height="50" relative="1" as="geometry">
            <mxPoint x="814.41" y="1147" as="sourcePoint" />
            <mxPoint x="814.41" y="1077" as="targetPoint" />
          </mxGeometry>
        </mxCell>
        <mxCell id="eNsB-PMLN9mRBoNj7WUG-60" value="&lt;font style=&quot;font-size: 22px;&quot;&gt;Mediana (valor central) = 3&lt;/font&gt;" style="text;html=1;strokeColor=none;fillColor=none;align=center;verticalAlign=middle;whiteSpace=wrap;rounded=0;" vertex="1" parent="1">
          <mxGeometry x="745" y="1167" width="150" height="50" as="geometry" />
        </mxCell>
        <mxCell id="eNsB-PMLN9mRBoNj7WUG-61" value="" style="shape=partialRectangle;whiteSpace=wrap;html=1;bottom=1;right=1;left=1;top=0;fillColor=none;routingCenterX=-0.5;" vertex="1" parent="1">
          <mxGeometry x="405" y="1047" width="340" height="60" as="geometry" />
        </mxCell>
        <mxCell id="eNsB-PMLN9mRBoNj7WUG-62" value="&lt;font style=&quot;font-size: 22px;&quot;&gt;50% dos valores é igual ou inferior à mediana = 3&lt;/font&gt;" style="text;html=1;strokeColor=none;fillColor=none;align=center;verticalAlign=middle;whiteSpace=wrap;rounded=0;" vertex="1" parent="1">
          <mxGeometry x="475" y="1067" width="200" height="190" as="geometry" />
        </mxCell>
        <mxCell id="eNsB-PMLN9mRBoNj7WUG-63" value="&lt;font style=&quot;font-size: 22px;&quot;&gt;50% dos valores é igual ou superior à mediana = 3&lt;/font&gt;" style="text;html=1;strokeColor=none;fillColor=none;align=center;verticalAlign=middle;whiteSpace=wrap;rounded=0;" vertex="1" parent="1">
          <mxGeometry x="955" y="1067" width="200" height="190" as="geometry" />
        </mxCell>
        <mxCell id="eNsB-PMLN9mRBoNj7WUG-64" value="" style="shape=partialRectangle;whiteSpace=wrap;html=1;bottom=1;right=1;left=1;top=0;fillColor=none;routingCenterX=-0.5;" vertex="1" parent="1">
          <mxGeometry x="885" y="1047" width="340" height="60" as="geometry" />
        </mxCell>
        <mxCell id="eNsB-PMLN9mRBoNj7WUG-66" value="&lt;span style=&quot;font-size: 22px;&quot;&gt;DEFINIÇÃO DE MEDIANA&lt;/span&gt;" style="text;html=1;strokeColor=none;fillColor=none;align=center;verticalAlign=middle;whiteSpace=wrap;rounded=0;" vertex="1" parent="1">
          <mxGeometry x="405" y="1237" width="820" height="30" as="geometry" />
        </mxCell>
        <mxCell id="eNsB-PMLN9mRBoNj7WUG-67" value="&lt;font style=&quot;font-size: 22px;&quot;&gt;- Mediana = 4 e Mediana =&amp;gt; 3 (neste caso, 4 é superior a 3), valor de referência&lt;/font&gt;" style="text;html=1;strokeColor=none;fillColor=none;align=left;verticalAlign=middle;whiteSpace=wrap;rounded=0;" vertex="1" parent="1">
          <mxGeometry x="400" y="762" width="800" height="30" as="geometry" />
        </mxCell>
        <mxCell id="eNsB-PMLN9mRBoNj7WUG-68" value="&lt;span style=&quot;font-size: 22px;&quot;&gt;- N(igual ou superior à mediana) = 50% + 1 (o valor central) = 3 + 1 = 4 valores em 7 que são iguais ou supeiores à mediana 3&lt;/span&gt;" style="text;html=1;strokeColor=none;fillColor=none;align=left;verticalAlign=middle;whiteSpace=wrap;rounded=0;" vertex="1" parent="1">
          <mxGeometry x="410" y="1290" width="850" height="30" as="geometry" />
        </mxCell>
        <mxCell id="eNsB-PMLN9mRBoNj7WUG-69" value="&lt;font style=&quot;font-size: 22px;&quot;&gt;- Valor de referência para obtenção de empatia = 3 (igual ou superior)&lt;/font&gt;" style="text;html=1;strokeColor=none;fillColor=none;align=left;verticalAlign=middle;whiteSpace=wrap;rounded=0;" vertex="1" parent="1">
          <mxGeometry x="410" y="1330" width="710" height="30" as="geometry" />
        </mxCell>
        <mxCell id="eNsB-PMLN9mRBoNj7WUG-70" value="&lt;font style=&quot;font-size: 22px;&quot;&gt;- Há 4 valores em 7 que são iguais ou superiores a 3, valor de referência para a média da pontuação de empatia&amp;nbsp;&lt;/font&gt;" style="text;html=1;strokeColor=none;fillColor=none;align=left;verticalAlign=middle;whiteSpace=wrap;rounded=0;" vertex="1" parent="1">
          <mxGeometry x="410" y="1410" width="830" height="30" as="geometry" />
        </mxCell>
        <mxCell id="eNsB-PMLN9mRBoNj7WUG-72" value="&lt;font style=&quot;font-size: 22px;&quot;&gt;- Mediana = 3 e Mediana =&amp;gt; 3 (neste caso, 3 é igual a 3), valor de referência&lt;/font&gt;" style="text;html=1;strokeColor=none;fillColor=none;align=left;verticalAlign=middle;whiteSpace=wrap;rounded=0;" vertex="1" parent="1">
          <mxGeometry x="410" y="1362" width="800" height="30" as="geometry" />
        </mxCell>
        <mxCell id="eNsB-PMLN9mRBoNj7WUG-73" value="&lt;font style=&quot;font-size: 22px;&quot;&gt;N = 7&lt;/font&gt;" style="text;html=1;strokeColor=none;fillColor=none;align=center;verticalAlign=middle;whiteSpace=wrap;rounded=0;" vertex="1" parent="1">
          <mxGeometry x="400" y="999" width="60" height="30" as="geometry" />
        </mxCell>
        <mxCell id="eNsB-PMLN9mRBoNj7WUG-74" value="" style="shape=partialRectangle;whiteSpace=wrap;html=1;bottom=1;right=1;left=1;top=0;fillColor=none;routingCenterX=-0.5;" vertex="1" parent="1">
          <mxGeometry x="400" y="1808" width="820" height="60" as="geometry" />
        </mxCell>
        <mxCell id="eNsB-PMLN9mRBoNj7WUG-75" value="&lt;span style=&quot;font-size: 22px;&quot;&gt;&lt;b&gt;EXEMPLO DE MELHOR CASO (em que mediana seja um valor igual ou superior a 3)&lt;/b&gt;&lt;/span&gt;" style="text;html=1;strokeColor=none;fillColor=none;align=left;verticalAlign=middle;whiteSpace=wrap;rounded=0;" vertex="1" parent="1">
          <mxGeometry x="395" y="1592" width="850" height="30" as="geometry" />
        </mxCell>
        <mxCell id="eNsB-PMLN9mRBoNj7WUG-76" value="" style="endArrow=none;html=1;rounded=0;" edge="1" parent="1">
          <mxGeometry width="50" height="50" relative="1" as="geometry">
            <mxPoint x="410" y="1708" as="sourcePoint" />
            <mxPoint x="490" y="1708" as="targetPoint" />
          </mxGeometry>
        </mxCell>
        <mxCell id="eNsB-PMLN9mRBoNj7WUG-77" value="&lt;font style=&quot;font-size: 35px;&quot;&gt;3&lt;/font&gt;" style="edgeLabel;html=1;align=center;verticalAlign=middle;resizable=0;points=[];" vertex="1" connectable="0" parent="eNsB-PMLN9mRBoNj7WUG-76">
          <mxGeometry x="0.2417" y="1" relative="1" as="geometry">
            <mxPoint x="-10" y="-29" as="offset" />
          </mxGeometry>
        </mxCell>
        <mxCell id="eNsB-PMLN9mRBoNj7WUG-78" value="" style="endArrow=none;html=1;rounded=0;" edge="1" parent="1">
          <mxGeometry width="50" height="50" relative="1" as="geometry">
            <mxPoint x="530" y="1708" as="sourcePoint" />
            <mxPoint x="610" y="1708" as="targetPoint" />
          </mxGeometry>
        </mxCell>
        <mxCell id="eNsB-PMLN9mRBoNj7WUG-79" value="&lt;font style=&quot;font-size: 35px;&quot;&gt;3&lt;/font&gt;" style="edgeLabel;html=1;align=center;verticalAlign=middle;resizable=0;points=[];" vertex="1" connectable="0" parent="eNsB-PMLN9mRBoNj7WUG-78">
          <mxGeometry x="0.2417" y="1" relative="1" as="geometry">
            <mxPoint x="-10" y="-29" as="offset" />
          </mxGeometry>
        </mxCell>
        <mxCell id="eNsB-PMLN9mRBoNj7WUG-80" value="" style="endArrow=none;html=1;rounded=0;" edge="1" parent="1">
          <mxGeometry width="50" height="50" relative="1" as="geometry">
            <mxPoint x="650" y="1708" as="sourcePoint" />
            <mxPoint x="730" y="1708" as="targetPoint" />
          </mxGeometry>
        </mxCell>
        <mxCell id="eNsB-PMLN9mRBoNj7WUG-81" value="&lt;font style=&quot;font-size: 35px;&quot;&gt;3&lt;/font&gt;" style="edgeLabel;html=1;align=center;verticalAlign=middle;resizable=0;points=[];" vertex="1" connectable="0" parent="eNsB-PMLN9mRBoNj7WUG-80">
          <mxGeometry x="0.2417" y="1" relative="1" as="geometry">
            <mxPoint x="-10" y="-29" as="offset" />
          </mxGeometry>
        </mxCell>
        <mxCell id="eNsB-PMLN9mRBoNj7WUG-82" value="" style="endArrow=none;html=1;rounded=0;" edge="1" parent="1">
          <mxGeometry width="50" height="50" relative="1" as="geometry">
            <mxPoint x="770" y="1708" as="sourcePoint" />
            <mxPoint x="850" y="1708" as="targetPoint" />
          </mxGeometry>
        </mxCell>
        <mxCell id="eNsB-PMLN9mRBoNj7WUG-83" value="&lt;font style=&quot;font-size: 35px;&quot;&gt;5&lt;/font&gt;" style="edgeLabel;html=1;align=center;verticalAlign=middle;resizable=0;points=[];" vertex="1" connectable="0" parent="eNsB-PMLN9mRBoNj7WUG-82">
          <mxGeometry x="0.2417" y="1" relative="1" as="geometry">
            <mxPoint x="-10" y="-29" as="offset" />
          </mxGeometry>
        </mxCell>
        <mxCell id="eNsB-PMLN9mRBoNj7WUG-84" value="" style="endArrow=none;html=1;rounded=0;" edge="1" parent="1">
          <mxGeometry width="50" height="50" relative="1" as="geometry">
            <mxPoint x="890" y="1708" as="sourcePoint" />
            <mxPoint x="970" y="1708" as="targetPoint" />
          </mxGeometry>
        </mxCell>
        <mxCell id="eNsB-PMLN9mRBoNj7WUG-85" value="&lt;font style=&quot;font-size: 35px;&quot;&gt;5&lt;/font&gt;" style="edgeLabel;html=1;align=center;verticalAlign=middle;resizable=0;points=[];" vertex="1" connectable="0" parent="eNsB-PMLN9mRBoNj7WUG-84">
          <mxGeometry x="0.2417" y="1" relative="1" as="geometry">
            <mxPoint x="-10" y="-29" as="offset" />
          </mxGeometry>
        </mxCell>
        <mxCell id="eNsB-PMLN9mRBoNj7WUG-86" value="" style="endArrow=none;html=1;rounded=0;" edge="1" parent="1">
          <mxGeometry width="50" height="50" relative="1" as="geometry">
            <mxPoint x="1010" y="1708" as="sourcePoint" />
            <mxPoint x="1090" y="1708" as="targetPoint" />
          </mxGeometry>
        </mxCell>
        <mxCell id="eNsB-PMLN9mRBoNj7WUG-87" value="&lt;font style=&quot;font-size: 35px;&quot;&gt;5&lt;/font&gt;" style="edgeLabel;html=1;align=center;verticalAlign=middle;resizable=0;points=[];" vertex="1" connectable="0" parent="eNsB-PMLN9mRBoNj7WUG-86">
          <mxGeometry x="0.2417" y="1" relative="1" as="geometry">
            <mxPoint x="-10" y="-29" as="offset" />
          </mxGeometry>
        </mxCell>
        <mxCell id="eNsB-PMLN9mRBoNj7WUG-88" value="" style="endArrow=none;html=1;rounded=0;" edge="1" parent="1">
          <mxGeometry width="50" height="50" relative="1" as="geometry">
            <mxPoint x="1130" y="1708" as="sourcePoint" />
            <mxPoint x="1210" y="1708" as="targetPoint" />
          </mxGeometry>
        </mxCell>
        <mxCell id="eNsB-PMLN9mRBoNj7WUG-89" value="&lt;font style=&quot;font-size: 35px;&quot;&gt;5&lt;/font&gt;" style="edgeLabel;html=1;align=center;verticalAlign=middle;resizable=0;points=[];" vertex="1" connectable="0" parent="eNsB-PMLN9mRBoNj7WUG-88">
          <mxGeometry x="0.2417" y="1" relative="1" as="geometry">
            <mxPoint x="-10" y="-29" as="offset" />
          </mxGeometry>
        </mxCell>
        <mxCell id="eNsB-PMLN9mRBoNj7WUG-90" value="" style="shape=flexArrow;endArrow=classic;html=1;rounded=0;" edge="1" parent="1">
          <mxGeometry width="50" height="50" relative="1" as="geometry">
            <mxPoint x="809.41" y="1788" as="sourcePoint" />
            <mxPoint x="809.41" y="1718" as="targetPoint" />
          </mxGeometry>
        </mxCell>
        <mxCell id="eNsB-PMLN9mRBoNj7WUG-91" value="&lt;font style=&quot;font-size: 22px;&quot;&gt;Mediana (valor central) = 5&lt;/font&gt;" style="text;html=1;strokeColor=none;fillColor=none;align=center;verticalAlign=middle;whiteSpace=wrap;rounded=0;" vertex="1" parent="1">
          <mxGeometry x="740" y="1808" width="150" height="50" as="geometry" />
        </mxCell>
        <mxCell id="eNsB-PMLN9mRBoNj7WUG-92" value="" style="shape=partialRectangle;whiteSpace=wrap;html=1;bottom=1;right=1;left=1;top=0;fillColor=none;routingCenterX=-0.5;" vertex="1" parent="1">
          <mxGeometry x="400" y="1688" width="340" height="60" as="geometry" />
        </mxCell>
        <mxCell id="eNsB-PMLN9mRBoNj7WUG-93" value="&lt;font style=&quot;font-size: 22px;&quot;&gt;50% dos valores é igual ou inferior à mediana = 5&lt;/font&gt;" style="text;html=1;strokeColor=none;fillColor=none;align=center;verticalAlign=middle;whiteSpace=wrap;rounded=0;" vertex="1" parent="1">
          <mxGeometry x="470" y="1708" width="200" height="190" as="geometry" />
        </mxCell>
        <mxCell id="eNsB-PMLN9mRBoNj7WUG-94" value="&lt;font style=&quot;font-size: 22px;&quot;&gt;50% dos valores é igual ou superior à mediana = 5&lt;/font&gt;" style="text;html=1;strokeColor=none;fillColor=none;align=center;verticalAlign=middle;whiteSpace=wrap;rounded=0;" vertex="1" parent="1">
          <mxGeometry x="950" y="1708" width="200" height="190" as="geometry" />
        </mxCell>
        <mxCell id="eNsB-PMLN9mRBoNj7WUG-95" value="" style="shape=partialRectangle;whiteSpace=wrap;html=1;bottom=1;right=1;left=1;top=0;fillColor=none;routingCenterX=-0.5;" vertex="1" parent="1">
          <mxGeometry x="880" y="1688" width="340" height="60" as="geometry" />
        </mxCell>
        <mxCell id="eNsB-PMLN9mRBoNj7WUG-96" value="&lt;span style=&quot;font-size: 22px;&quot;&gt;DEFINIÇÃO DE MEDIANA&lt;/span&gt;" style="text;html=1;strokeColor=none;fillColor=none;align=center;verticalAlign=middle;whiteSpace=wrap;rounded=0;" vertex="1" parent="1">
          <mxGeometry x="400" y="1878" width="820" height="30" as="geometry" />
        </mxCell>
        <mxCell id="eNsB-PMLN9mRBoNj7WUG-97" value="&lt;span style=&quot;font-size: 22px;&quot;&gt;- N(igual ou superior à mediana) = 50% + 1 (o valor central) = 3 + 1 = 4 valores em 7 que são iguais ou superioes à mediana 5&lt;/span&gt;" style="text;html=1;strokeColor=none;fillColor=none;align=left;verticalAlign=middle;whiteSpace=wrap;rounded=0;" vertex="1" parent="1">
          <mxGeometry x="405" y="1931" width="850" height="30" as="geometry" />
        </mxCell>
        <mxCell id="eNsB-PMLN9mRBoNj7WUG-98" value="&lt;font style=&quot;font-size: 22px;&quot;&gt;- Valor de referência para obtenção de empatia = 3 (igual ou superior)&lt;/font&gt;" style="text;html=1;strokeColor=none;fillColor=none;align=left;verticalAlign=middle;whiteSpace=wrap;rounded=0;" vertex="1" parent="1">
          <mxGeometry x="405" y="1971" width="745" height="30" as="geometry" />
        </mxCell>
        <mxCell id="eNsB-PMLN9mRBoNj7WUG-99" value="&lt;font style=&quot;font-size: 22px;&quot;&gt;- Há 7 valores em 7 que são iguais ou superiores a 3, valor de referência para a média da pontuação de empatia&amp;nbsp;&lt;/font&gt;" style="text;html=1;strokeColor=none;fillColor=none;align=left;verticalAlign=middle;whiteSpace=wrap;rounded=0;" vertex="1" parent="1">
          <mxGeometry x="405" y="2051" width="830" height="30" as="geometry" />
        </mxCell>
        <mxCell id="eNsB-PMLN9mRBoNj7WUG-101" value="&lt;font style=&quot;font-size: 22px;&quot;&gt;- Mediana = 5 e Mediana =&amp;gt; 3 (neste caso, 5 é superior a 3), valor de referência&lt;/font&gt;" style="text;html=1;strokeColor=none;fillColor=none;align=left;verticalAlign=middle;whiteSpace=wrap;rounded=0;" vertex="1" parent="1">
          <mxGeometry x="405" y="2003" width="800" height="30" as="geometry" />
        </mxCell>
        <mxCell id="eNsB-PMLN9mRBoNj7WUG-102" value="&lt;font style=&quot;font-size: 22px;&quot;&gt;N = 7&lt;/font&gt;" style="text;html=1;strokeColor=none;fillColor=none;align=center;verticalAlign=middle;whiteSpace=wrap;rounded=0;" vertex="1" parent="1">
          <mxGeometry x="395" y="1629" width="60" height="30" as="geometry" />
        </mxCell>
        <mxCell id="eNsB-PMLN9mRBoNj7WUG-103" value="&lt;font style=&quot;font-size: 22px;&quot;&gt;- Como há 4 valores em 7 (maioria) que são iguais ou inferiores à mediana (3), há 4 valores em 7 (maioria) que são iguais ou superiores ao valor de referência 3 e o valor da mediana &amp;gt;= valor de referência, a ocorrência deste valor de mediana fará com que o valor final da empatia&amp;nbsp; (médio) tenda a ficar próximo de 3&lt;/font&gt;" style="text;html=1;strokeColor=none;fillColor=none;align=left;verticalAlign=middle;whiteSpace=wrap;rounded=0;" vertex="1" parent="1">
          <mxGeometry x="410" y="1491" width="830" height="30" as="geometry" />
        </mxCell>
        <mxCell id="eNsB-PMLN9mRBoNj7WUG-104" value="&lt;font style=&quot;font-size: 22px;&quot;&gt;- Como há 4 valores em 7 (maioria) que são iguais ou inferiores à mediana (5), há 7 valores em 7 (maioria) que são iguais ou superiores ao valor de referência 3 e o valor da mediana &amp;gt;= valor de referência, a ocorrência deste valor de mediana fará com que o valor final da empatia&amp;nbsp; (médio) tenda a ficar próximo de 3&lt;/font&gt;" style="text;html=1;strokeColor=none;fillColor=none;align=left;verticalAlign=middle;whiteSpace=wrap;rounded=0;" vertex="1" parent="1">
          <mxGeometry x="400" y="2140" width="830" height="30" as="geometry" />
        </mxCell>
      </root>
    </mxGraphModel>
  </diagram>
</mxfile>
